<?xml version="1.0" standalone="no"?>
<!DOCTYPE svg PUBLIC "-//W3C//DTD SVG 20010904//EN"
 "http://www.w3.org/TR/2001/REC-SVG-20010904/DTD/svg10.dtd">
<svg version="1.0" xmlns="http://www.w3.org/2000/svg"
 width="400.000000pt" height="400.000000pt" viewBox="0 0 400.000000 400.000000"
 preserveAspectRatio="xMidYMid meet">
<metadata>
Created by potrace 1.14, written by Peter Selinger 2001-2017
</metadata>
<g transform="translate(0.000000,400.000000) scale(0.100000,-0.100000)"
fill="#000000" stroke="none">
<path d="M0 2225 c0 -1256 3 -1789 11 -1827 39 -188 204 -353 388 -388 35 -6
663 -10 1827 -10 l1774 0 0 1775 c0 1256 -3 1789 -11 1827 -39 188 -204 353
-388 388 -35 6 -663 10 -1827 10 l-1774 0 0 -1775z m2289 959 c352 -73 570
-298 607 -626 l6 -58 -270 0 -271 0 -7 48 c-16 109 -87 195 -190 227 -86 27
-222 17 -299 -21 -109 -54 -157 -154 -120 -249 35 -93 148 -160 435 -260 344
-119 527 -238 629 -410 140 -233 110 -555 -67 -738 -88 -91 -241 -169 -402
-204 -128 -27 -430 -25 -557 4 -390 91 -629 334 -650 661 l-6 82 270 0 270 0
6 -66 c7 -76 41 -156 83 -198 107 -107 400 -128 514 -37 63 50 80 85 80 163 0
74 -17 128 -53 166 -39 42 -149 99 -292 151 -407 149 -554 231 -677 378 -92
111 -133 229 -132 383 2 197 92 353 272 471 206 135 544 190 821 133z"/>
</g>
</svg>
